{
	"asset":{
		"generator":"Khronos glTF Blender I/O v3.6.27",
		"version":"2.0"
	},
	"scene":0,
	"scenes":[
		{
			"name":"Scene",
			"nodes":[
				0,
				1
			]
		}
	],
	"nodes":[
		{
			"mesh":0,
			"name":"Hull"
		},
		{
			"mesh":1,
			"name":"Propeller"
		}
	],
	"meshes":[
		{
			"name":"Hull",
			"primitives":[
				{
					"attributes":{
						"POSITION":0,
						"NORMAL":1,
						"TEXCOORD_0":2
					},
					"indices":3
				}
			]
		},
		{
			"name":"Propeller",
			"primitives":[
				{
					"attributes":{
						"POSITION":4,
						"NORMAL":5,
						"TEXCOORD_0":6
					},
					"indices":7
				}
			]
		}
	],
	"accessors":[
		{
			"bufferView":0,
			"componentType":5126,
			"count":618,
			"max":[
				31.385704040527344,
				31.38758659362793,
				46
			],
			"min":[
				-31.389469146728516,
				-33.129051208496094,
				-46
			],
			"type":"VEC3"
		},
		{
			"bufferView":1,
			"componentType":5126,
			"count":618,
			"type":"VEC3"
		},
		{
			"bufferView":2,
			"componentType":5126,
			"count":618,
			"type":"VEC2"
		},
		{
			"bufferView":3,
			"componentType":5123,
			"count":1014,
			"type":"SCALAR"
		},
		{
			"bufferView":4,
			"componentType":5126,
			"count":20,
			"max":[
				17.34664535522461,
				17.34853172302246,
				-29.06110382080078
			],
			"min":[
				-17.350406646728516,
				-17.3485164642334,
				-45.5312385559082
			],
			"type":"VEC3"
		},
		{
			"bufferView":5,
			"componentType":5126,
			"count":20,
			"type":"VEC3"
		},
		{
			"bufferView":6,
			"componentType":5126,
			"count":20,
			"type":"VEC2"
		},
		{
			"bufferView":7,
			"componentType":5123,
			"count":30,
			"type":"SCALAR"
		}
	],
	"bufferViews":[
		{
			"buffer":0,
			"byteLength":7416,
			"byteOffset":0,
			"target":34962
		},
		{
			"buffer":0,
			"byteLength":7416,
			"byteOffset":7416,
			"target":34962
		},
		{
			"buffer":0,
			"byteLength":4944,
			"byteOffset":14832,
			"target":34962
		},
		{
			"buffer":0,
			"byteLength":2028,
			"byteOffset":19776,
			"target":34963
		},
		{
			"buffer":0,
			"byteLength":240,
			"byteOffset":21804,
			"target":34962
		},
		{
			"buffer":0,
			"byteLength":240,
			"byteOffset":22044,
			"target":34962
		},
		{
			"buffer":0,
			"byteLength":160,
			"byteOffset":22284,
			"target":34962
		},
		{
			"buffer":0,
			"byteLength":60,
			"byteOffset":22444,
			"target":34963
		}
	],
	"buffers":[
		{
			"byteLength":22504,
			"uri":"data:application/octet-stream;base64,"
		}
	]
}
